REM DIRINDEX 1\5,1\2\6,1\2\7,1\3\8,1\3\9,1\4\10,1\4\11,1\4\12
REM DIRNAME cjc026,folder01,folder02,folder03,folder04,folder05,folder06,folder07,folder08,folder09,folder10,folder11
TITLE ""
FILE "EJE_DB3000_5th_4B_41.mp3" MP3
  TRACK 01 AUDIO
    TITLE "0:"
    INDEX 01 00:00:00
  TRACK 02 AUDIO
    TITLE "10:cjc026_09768"
    INDEX 01 00:00:08
  TRACK 03 AUDIO
    TITLE "0:"
    INDEX 01 00:01:38
  TRACK 04 AUDIO
    TITLE "11:cjc026_09769"
    INDEX 01 00:01:73
  TRACK 05 AUDIO
    TITLE "0:"
    INDEX 01 00:03:42
  TRACK 06 AUDIO
    TITLE "12:cjc026_09770"
    INDEX 01 00:04:05
  TRACK 07 AUDIO
    TITLE "0:"
    INDEX 01 00:05:35
  TRACK 08 AUDIO
    TITLE "10:cjc026_09771"
    INDEX 01 00:05:67
  TRACK 09 AUDIO
    TITLE "0:"
    INDEX 01 00:07:12
  TRACK 10 AUDIO
    TITLE "11:cjc026_09772"
    INDEX 01 00:07:50
  TRACK 11 AUDIO
    TITLE "0:"
    INDEX 01 00:09:18
  TRACK 12 AUDIO
    TITLE "12:cjc026_09773"
    INDEX 01 00:09:56
  TRACK 13 AUDIO
    TITLE "0:"
    INDEX 01 00:11:01
  TRACK 14 AUDIO
    TITLE "10:cjc026_09774"
    INDEX 01 00:11:39
  TRACK 15 AUDIO
    TITLE "0:"
    INDEX 01 00:12:58
  TRACK 16 AUDIO
    TITLE "11:cjc026_09775"
    INDEX 01 00:13:21
  TRACK 17 AUDIO
    TITLE "0:"
    INDEX 01 00:14:73
  TRACK 18 AUDIO
    TITLE "12:cjc026_09776"
    INDEX 01 00:15:36
  TRACK 19 AUDIO
    TITLE "0:"
    INDEX 01 00:16:55
  TRACK 20 AUDIO
    TITLE "10:cjc026_09777"
    INDEX 01 00:17:18
  TRACK 21 AUDIO
    TITLE "0:"
    INDEX 01 00:18:32
  TRACK 22 AUDIO
    TITLE "11:cjc026_09778"
    INDEX 01 00:18:67
  TRACK 23 AUDIO
    TITLE "0:"
    INDEX 01 00:20:25
  TRACK 24 AUDIO
    TITLE "12:cjc026_09779"
    INDEX 01 00:20:60
  TRACK 25 AUDIO
    TITLE "0:"
    INDEX 01 00:22:02
  TRACK 26 AUDIO
    TITLE "10:cjc026_09780"
    INDEX 01 00:22:40
  TRACK 27 AUDIO
    TITLE "0:"
    INDEX 01 00:23:59
  TRACK 28 AUDIO
    TITLE "11:cjc026_09781"
    INDEX 01 00:24:19
  TRACK 29 AUDIO
    TITLE "0:"
    INDEX 01 00:25:42
  TRACK 30 AUDIO
    TITLE "12:cjc026_09782"
    INDEX 01 00:26:04
  TRACK 31 AUDIO
    TITLE "0:"
    INDEX 01 00:27:24
  TRACK 32 AUDIO
    TITLE "10:cjc026_09783"
    INDEX 01 00:27:59
  TRACK 33 AUDIO
    TITLE "0:"
    INDEX 01 00:29:14
  TRACK 34 AUDIO
    TITLE "11:cjc026_09784"
    INDEX 01 00:29:49
  TRACK 35 AUDIO
    TITLE "0:"
    INDEX 01 00:30:72
  TRACK 36 AUDIO
    TITLE "12:cjc026_09785"
    INDEX 01 00:31:37
  TRACK 37 AUDIO
    TITLE "0:"
    INDEX 01 00:32:65
  TRACK 38 AUDIO
    TITLE "10:cjc026_09786"
    INDEX 01 00:33:27
  TRACK 39 AUDIO
    TITLE "0:"
    INDEX 01 00:34:47
  TRACK 40 AUDIO
    TITLE "11:cjc026_09787"
    INDEX 01 00:35:07
  TRACK 41 AUDIO
    TITLE "0:"
    INDEX 01 00:36:29
  TRACK 42 AUDIO
    TITLE "12:cjc026_09788"
    INDEX 01 00:36:67
  TRACK 43 AUDIO
    TITLE "0:"
    INDEX 01 00:38:11
  TRACK 44 AUDIO
    TITLE "10:cjc026_09789"
    INDEX 01 00:38:47
  TRACK 45 AUDIO
    TITLE "0:"
    INDEX 01 00:39:61
  TRACK 46 AUDIO
    TITLE "11:cjc026_09790"
    INDEX 01 00:40:24
  TRACK 47 AUDIO
    TITLE "0:"
    INDEX 01 00:41:54
  TRACK 48 AUDIO
    TITLE "12:cjc026_09791"
    INDEX 01 00:42:14
  TRACK 49 AUDIO
    TITLE "0:"
    INDEX 01 00:43:28
  TRACK 50 AUDIO
    TITLE "10:cjc026_09792"
    INDEX 01 00:43:66
  TRACK 51 AUDIO
    TITLE "0:"
    INDEX 01 00:45:29
  TRACK 52 AUDIO
    TITLE "11:cjc026_09793"
    INDEX 01 00:45:64
  TRACK 53 AUDIO
    TITLE "0:"
    INDEX 01 00:47:74
  TRACK 54 AUDIO
    TITLE "12:cjc026_09794"
    INDEX 01 00:48:34
  TRACK 55 AUDIO
    TITLE "0:"
    INDEX 01 00:49:72
  TRACK 56 AUDIO
    TITLE "10:cjc026_09795"
    INDEX 01 00:50:32
  TRACK 57 AUDIO
    TITLE "0:"
    INDEX 01 00:51:73
  TRACK 58 AUDIO
    TITLE "11:cjc026_09796"
    INDEX 01 00:52:33
  TRACK 59 AUDIO
    TITLE "0:"
    INDEX 01 00:54:00
  TRACK 60 AUDIO
    TITLE "12:cjc026_09797"
    INDEX 01 00:54:32
  TRACK 61 AUDIO
    TITLE "0:"
    INDEX 01 00:55:73
  TRACK 62 AUDIO
    TITLE "10:cjc026_09798"
    INDEX 01 00:56:33
  TRACK 63 AUDIO
    TITLE "0:"
    INDEX 01 00:57:74
  TRACK 64 AUDIO
    TITLE "11:cjc026_09799"
    INDEX 01 00:58:37
  TRACK 65 AUDIO
    TITLE "0:"
    INDEX 01 01:00:41
  TRACK 66 AUDIO
    TITLE "12:cjc026_09800"
    INDEX 01 01:01:01
  TRACK 67 AUDIO
    TITLE "0:"
    INDEX 01 01:02:42
  TRACK 68 AUDIO
    TITLE "10:cjc026_09801"
    INDEX 01 01:03:05
  TRACK 69 AUDIO
    TITLE "0:"
    INDEX 01 01:04:33
  TRACK 70 AUDIO
    TITLE "11:cjc026_09802"
    INDEX 01 01:04:68
  TRACK 71 AUDIO
    TITLE "0:"
    INDEX 01 01:06:31
  TRACK 72 AUDIO
    TITLE "12:cjc026_09803"
    INDEX 01 01:06:66
  TRACK 73 AUDIO
    TITLE "0:"
    INDEX 01 01:08:19
  TRACK 74 AUDIO
    TITLE "10:cjc026_09804"
    INDEX 01 01:08:54
  TRACK 75 AUDIO
    TITLE "0:"
    INDEX 01 01:10:04
  TRACK 76 AUDIO
    TITLE "11:cjc026_09805"
    INDEX 01 01:10:42
  TRACK 77 AUDIO
    TITLE "0:"
    INDEX 01 01:11:64
  TRACK 78 AUDIO
    TITLE "12:cjc026_09806"
    INDEX 01 01:12:24
  TRACK 79 AUDIO
    TITLE "0:"
    INDEX 01 01:13:46
